<svg id="Capa_1" fill="#f96332" height="512" viewBox="0 0 512 512" width="512" xmlns="http://www.w3.org/2000/svg"><g><g><path d="m418.55 353.626c-.885-4.051-4.889-6.618-8.937-5.733-4.051.885-6.617 4.886-5.733 8.937 3.311 15.158 5.115 31.529 5.372 48.722-3.406 1.845-9.408 4.816-18.135 8.151-4.401-71.339-22.212-116.789-37.481-143.327-1.699-2.953-3.401-5.729-5.092-8.354 16.025 13.402 33.378 33.406 45.336 62.488 1.193 2.901 3.994 4.654 6.947 4.654.951 0 1.918-.182 2.853-.566 3.835-1.577 5.665-5.964 4.088-9.799-25.963-63.14-74.474-87.034-90.642-93.458v-25.516c3.755-10.073 26.78-72.87 26.78-97.85 0-24.084-17.943-44.045-41.161-47.246l-7.159-48.321c-.608-4.102-4.422-6.938-8.527-6.327-4.102.608-6.934 4.426-6.327 8.527l6.882 46.451c-13.245 2.42-24.603 10.308-31.614 21.251-7.011-10.943-18.369-18.831-31.614-21.249l6.882-46.451c.608-4.102-2.225-7.92-6.327-8.527-4.105-.611-7.92 2.225-8.527 6.327l-7.159 48.321c-23.218 3.202-41.161 23.163-41.161 47.246 0 24.98 23.025 87.777 26.78 97.85v25.516c-16.168 6.423-64.678 30.318-90.642 93.458-1.577 3.835.254 8.222 4.088 9.799.935.384 1.901.566 2.853.566 2.953 0 5.754-1.754 6.947-4.654 11.958-29.082 29.312-49.086 45.336-62.488-1.692 2.625-3.393 5.401-5.092 8.354-15.27 26.538-33.08 71.988-37.481 143.327-8.732-3.337-14.735-6.309-18.135-8.15.257-17.193 2.061-33.565 5.372-48.723.885-4.051-1.681-8.053-5.733-8.937-4.052-.886-8.053 1.682-8.937 5.733-3.815 17.466-5.75 36.383-5.75 56.223 0 2.51 1.254 4.854 3.342 6.246.42.28 9.749 6.422 29.109 13.346-.189 5.923-.296 11.993-.296 18.248 0 2.511 1.255 4.856 3.344 6.248.457.304 10.576 6.982 28.975 14.3-.098 5.179-.159 10.438-.159 15.825 0 2.541 1.285 4.909 3.415 6.294 1.143.743 28.606 18.239 82.402 21.629.161.01.32.015.48.015 3.93 0 7.235-3.059 7.486-7.036.261-4.138-2.883-7.704-7.021-7.966-39.163-2.467-63.266-12.98-71.734-17.333.503-96.468 17.475-157.31 31.748-191.509 12.498-29.946 25.1-45.101 29.726-50.041h9.592c4.974 3.783 11.174 6.035 17.892 6.035s12.917-2.252 17.892-6.035h9.592c4.624 4.938 17.226 20.09 29.726 50.041 14.273 34.199 31.245 95.039 31.748 191.507-8.487 4.363-32.586 14.868-71.734 17.334-4.138.261-7.282 3.827-7.021 7.966.251 3.978 3.555 7.036 7.486 7.036.159 0 .319-.005.48-.015 53.796-3.39 81.259-20.886 82.402-21.629 2.13-1.385 3.415-3.754 3.415-6.294 0-5.387-.061-10.646-.159-15.825 18.399-7.318 28.518-13.996 28.975-14.3 2.089-1.392 3.344-3.737 3.344-6.248 0-6.255-.107-12.325-.296-18.248 19.36-6.924 28.689-13.066 29.109-13.346 2.088-1.393 3.342-3.736 3.342-6.246-.003-19.841-1.937-38.758-5.752-56.224zm-134.202-147.665h17.761v17.138h-17.76c.822-2.714 1.268-5.588 1.268-8.567s-.446-5.856-1.269-8.571zm-68.55-136.675c.004 0 .008.001.012.001h.01c18.017.011 32.671 14.671 32.671 32.69 0 4.147 3.361 7.508 7.508 7.508s7.508-3.361 7.508-7.508c0-18.019 14.654-32.679 32.671-32.69h.01c.004 0 .008-.001.012-.001 18.024.002 32.688 14.666 32.688 32.691 0 18.367-16.275 66.56-24.488 88.969h-30.516c-4.973-3.78-11.171-6.03-17.885-6.03-6.715 0-12.912 2.25-17.885 6.03h-30.516c-8.213-22.408-24.488-70.602-24.488-88.969.001-18.025 14.664-32.689 32.688-32.691zm-5.907 153.813v-17.138h17.761c-.822 2.715-1.269 5.591-1.269 8.571 0 2.978.446 5.853 1.268 8.567zm-24.339 57.8c-13.647 32.197-29.62 87.058-32.914 171.285-8.306-3.554-14.319-6.757-17.752-8.722.619-84.514 19.732-135.977 35.808-164.393 14.595-25.798 29.315-37.637 33.96-40.953h4.481c-6.526 8.906-15.09 22.748-23.583 42.783zm55.846-66.366c0-8.051 6.55-14.601 14.602-14.601s14.602 6.55 14.602 14.601-6.55 14.602-14.602 14.602-14.602-6.551-14.602-14.602zm117.964 237.651c-3.294-84.227-19.267-139.088-32.914-171.285-8.492-20.036-17.057-33.877-23.582-42.784h4.477c4.683 3.344 19.385 15.185 33.964 40.953 16.076 28.416 35.189 79.879 35.808 164.393-3.437 1.968-9.45 5.17-17.753 8.723z"/><path d="m226.856 149.683c14.293 0 23.648-4.785 29.144-9.042 5.496 4.257 14.851 9.042 29.144 9.042 4.147 0 7.508-3.361 7.508-7.508 0-4.146-3.361-7.508-7.508-7.508-16.042 0-22.238-7.82-22.861-8.667-1.354-2.257-3.646-3.64-6.283-3.64s-4.928 1.383-6.283 3.64c-.624.848-6.82 8.667-22.861 8.667-4.146 0-7.508 3.361-7.508 7.508s3.362 7.508 7.508 7.508z"/></g></g></svg>